<?xml version="1.0" standalone="no"?>
<!DOCTYPE svg PUBLIC "-//W3C//DTD SVG 1.1//EN" "http://www.w3.org/Graphics/SVG/1.1/DTD/svg11.dtd" >
<!--
2013-9-30: Created.
-->
<svg>
<metadata>
Created by iconfont
</metadata>
<defs>

<font id="iconfont" horiz-adv-x="1024" >
  <font-face
    font-family="iconfont"
    font-weight="500"
    font-stretch="normal"
    units-per-em="1024"
    ascent="896"
    descent="-128"
  />
    <missing-glyph />
    
    <glyph glyph-name="iconfontzhizuobiaozhunbduan31" unicode="&#59109;" d="M527.445272 837.338972c-0.065492 0.064468-0.134053 0.130983-0.201591 0.196475-9.279341 9.019421-24.251334 8.931416-33.385365-0.196475l-145.869229-145.894811c-7.78122-7.779174-7.779174-20.392446 0-28.170596 7.78122-7.77815 20.394493-7.77815 28.172643 0.001023l134.491087 134.509507 137.185452-137.204895c3.889587-3.889587 8.987698-5.834892 14.086833-5.834892s10.1952 1.944282 14.086833 5.833869c7.78122 7.77815 7.78122 20.391423 0.002047 28.17162L527.445272 837.338972zM508.658394 805.803745c-11.002588 0-19.922748-8.918114-19.922748-19.919678l0-273.459139c0-11.002588 8.92016-19.920702 19.922748-19.920702s19.922748 8.918114 19.922748 19.920702l0 273.459139C528.580119 796.885632 519.660982 805.803745 508.658394 805.803745zM1021.511831 273.88202 1021.511831 273.88202c0 11.722996 0 23.447015-11.726066 35.167964l-5.858428 5.861498-189.189873 215.316927c-5.858428 5.862521-11.719926 11.721973-23.441898 11.721973l-103.456257 0c-17.584494 0-30.365588-6.424316-30.365588-24.009833 0-17.582447 12.781094-19.769252 30.365588-19.769252l105.507986 0L943.557388 324.01993 793.349341 324.01993c-23.448038 0-46.89403-17.58654-52.754504-41.028439l-29.308513-85.307921c-5.860475-23.445992-29.306466-41.028439-52.752458-41.028439l-281.34576 0c-23.445992 0-53.249785 17.582447-59.112306 41.028439l-32.483832 89.546456c-11.722996 17.582447-6.372128 33.521464-49.078789 35.166941l-143.850246 0 143.850246 167.792541 99.646488 0c17.582447 0 29.30442 2.187829 29.30442 19.769252 0 17.585517-11.721973 25.072025-29.30442 25.072025l-98.157577 0c-5.862521 0-17.58654-5.862521-23.447015-11.725042l-194.48446-214.255759c0 0-17.585517-23.444968-17.585517-35.167964l0 0c0 0 0 0 0-5.861498l0-293.070802c0-29.306466 11.294231-51.197032 40.600697-51.197032L980.912158-76.247312c29.306466 0 40.600697 21.89159 40.600697 51.197032L1021.512854 273.88202C1021.511831 268.020522 1021.511831 268.020522 1021.511831 273.88202L1021.511831 273.88202zM980.912158-31.405011l-937.824315 0 0 315.319525 202.962551 0 29.306466-93.782943c17.58654-46.889937 49.078789-76.762291 101.833293-76.762291l269.622764 0c52.754504 0 93.78192 24.009833 111.366414 76.762291l29.306466 93.782943L980.912158 283.914514l0-308.963771L980.912158-31.405011zM511.999488 268.020522 511.999488 268.020522 511.999488 268.020522Z"  horiz-adv-x="1024" />

    
    <glyph glyph-name="fenlei" unicode="&#58936;" d="M405.20192 408.39168H164.89984c-42.15808 0-77.29152 54.80448-77.29152 96.96256V725.98016c0 42.15808 35.13344 77.29152 77.29152 77.29152h240.30208c42.15808 0 77.29152-35.13344 77.29152-77.29152v-238.89408c-0.00512-43.56608-35.13344-78.6944-77.29152-78.6944z m18.26816 299.32032c0 19.67616-15.45728 35.13344-35.13344 35.13344H180.35712c-18.26816 0-33.72544-15.45728-33.72544-35.13344v-207.97952c0-19.67616 15.45728-35.13344 35.13344-35.13344h207.97952c19.67616 0 35.13344 15.45728 35.13344 35.13344V707.712h-1.408z m435.63008-299.32032h-240.30208c-42.15808 0-77.29152 54.80448-77.29152 96.96256V725.98016c0 42.15808 35.13344 77.29152 77.29152 77.29152h240.30208c42.15808 0 77.29152-35.13344 77.29152-77.29152v-238.89408c-0.00512-43.56608-33.73056-78.6944-77.29152-78.6944z m18.26816 299.32032c0 19.67616-15.45728 35.13344-35.13344 35.13344h-206.57152c-19.67616 0-35.13344-15.45728-35.13344-35.13344v-207.97952c0-19.67616 15.45728-35.13344 35.13344-35.13344h207.97952c19.67616 0 35.13344 15.45728 35.13344 35.13344V707.712h-1.408z m-18.26816-753.21856h-240.30208c-42.15808 0-77.29152 54.80448-77.29152 96.96256v219.22304c0 42.15808 35.13344 77.29152 77.29152 77.29152h240.30208c42.15808 0 77.29152-35.13344 77.29152-77.29152v-238.89408c-0.00512-42.1632-33.73056-77.29152-77.29152-77.29152z m18.26816 299.32032c0 19.67616-15.45728 35.13344-35.13344 35.13344h-206.57152c-19.67616 0-35.13344-15.45728-35.13344-35.13344v-207.97952c0-19.67616 15.45728-35.13344 35.13344-35.13344h207.97952c19.67616 0 35.13344 15.45728 35.13344 35.13344v207.97952h-1.408z m-472.1664-299.32032H164.89984c-42.15808 0-77.29152 54.80448-77.29152 96.96256v219.22304c0 42.15808 35.13344 77.29152 77.29152 77.29152h240.30208c42.15808 0 77.29152-35.13344 77.29152-77.29152v-238.89408c-0.00512-42.1632-35.13344-77.29152-77.29152-77.29152z m18.26816 299.32032c0 19.67616-15.45728 35.13344-35.13344 35.13344H180.35712c-19.67616 0-35.13344-15.45728-35.13344-35.13344v-207.97952c0-19.67616 15.45728-35.13344 35.13344-35.13344h207.97952c19.67616 0 35.13344 15.45728 35.13344 35.13344v207.97952z"  horiz-adv-x="1024" />

    
    <glyph glyph-name="xiaoxi" unicode="&#58900;" d="M390 438.7c0-27.9-22.4-50.5-50.1-50.5s-50.1 22.6-50.1 50.5 22.4 50.5 50.1 50.5 50.1-22.6 50.1-50.5zM571.7 438.7c0-27.9-22.4-50.5-50.1-50.5-27.7 0-50.1 22.6-50.1 50.5s22.4 50.5 50.1 50.5c27.7 0 50.1-22.6 50.1-50.5zM755.1 438.7c0-27.9-22.4-50.5-50.1-50.5s-50.1 22.6-50.1 50.5 22.4 50.5 50.1 50.5c27.6 0 50.1-22.6 50.1-50.5zM473.7 60.1l115.7 77.1c22.1 14.7 59.3 26 85.9 26h101.7c78.8 0 142.7 63.9 142.7 142.6v264.9c0 78.8-63.8 142.6-142.6 142.6h-529.8c-78.7 0-142.6-63.9-142.6-142.6v-264.8c0-78.8 63.8-142.6 142.6-142.6h163.1c33.7 0 61-27.4 61-61.1v-40.8c0-0.9 0-1.7 0.1-2.4 0.7 0.2 1.4 0.6 2.2 1.1zM247.3 754.1h529.8c101.3 0 183.3-82.1 183.3-183.4v-264.8c0-101.2-82.2-183.4-183.5-183.4h-101.7c-18.5 0-47.9-8.9-63.3-19.1l-115.7-77.1c-32.2-21.5-65.5-3.7-65.5 35.1v40.8c0 11.2-9.1 20.3-20.3 20.3h-163c-101.3 0-183.4 82.1-183.4 183.4v264.8c0 101.2 82.1 183.4 183.3 183.4z"  horiz-adv-x="1024" />

    
    <glyph glyph-name="changjianwenti" unicode="&#59375;" d="M512 98.509a31.061 31.061 0 1 0 0 62.088 31.061 31.061 0 0 0 0-62.088zM674.133 486.4A162.167 162.167 0 0 0 537.6 326.28v-95.88a25.6 25.6 0 1 0-51.2 0V349.867a25.6 25.6 0 0 0 25.6 25.6A110.933 110.933 0 1 1 401.067 486.4a25.6 25.6 0 1 0-51.2 0 162.133 162.133 0 1 0 324.266 0zM512-34.133C281.088-34.133 93.867 153.088 93.867 384S281.088 802.133 512 802.133 930.133 614.912 930.133 384 742.912-34.133 512-34.133z m0 51.2c202.65 0 366.933 164.283 366.933 366.933S714.65 750.933 512 750.933 145.067 586.65 145.067 384 309.35 17.067 512 17.067z"  horiz-adv-x="1024" />

    
    <glyph glyph-name="daizhifu" unicode="&#59376;" d="M508.928-40.448c-234.496 0-423.936 189.952-423.936 424.448 0 170.496 101.888 324.096 259.072 390.144 215.552 91.136 464.384-9.728 556.032-225.792s-9.728-464.384-225.792-556.032c-52.224-21.504-108.544-32.768-165.376-32.768z m0 787.968c-200.704 0-364.032-163.328-364.032-364.032s163.328-364.032 364.032-364.032 364.032 163.328 364.032 364.032S709.632 747.52 508.928 747.52zM480.256 194.56v89.088H405.504c-21.504 1.024-31.744 10.752-31.744 28.16 0 18.944 10.752 27.648 31.744 26.112h75.264v30.208H405.504c-22.528 0-33.28 9.216-31.744 28.16-1.024 18.944 9.216 27.648 31.744 26.112H450.56L361.984 557.568c-10.24 18.944-7.68 32.768 7.68 41.472 16.384 8.704 30.208 3.584 41.472-14.848l97.792-146.432L604.16 583.68c13.824 18.944 28.672 23.552 45.056 14.848 14.848-11.264 16.896-25.6 5.632-43.008l-88.064-133.12h43.008c25.088 0 36.352-9.216 33.792-28.16 1.024-17.408-9.216-26.112-31.744-26.112h-75.264v-30.208h75.264c25.088 1.024 36.352-8.192 33.792-28.16 1.024-17.408-10.24-26.112-33.792-26.112h-75.264V194.56c0-21.504-9.216-31.232-28.16-30.208-18.944-1.024-28.16 8.704-28.16 30.208z"  horiz-adv-x="1024" />

    
    <glyph glyph-name="duihao" unicode="&#59377;" d="M348.638 134.963L125.406 358.195a25.6 25.6 0 0 1-36.181-36.181L330.547 80.69a25.6 25.6 0 0 1 36.182 0L921.6 622.933a25.6 25.6 0 1 1-36.181 36.182L348.604 134.997z"  horiz-adv-x="1024" />

    
    <glyph glyph-name="chaxun" unicode="&#59378;" d="M268 566.5c-16.569 0-30 13.431-30 30 0 16.569 13.431 30 30 30h420c16.569 0 30-13.431 30-30 0-16.569-13.431-30-30-30H268z m0-212.5c-16.569 0-30 13.431-30 30 0 16.569 13.431 30 30 30h320c16.569 0 30-13.431 30-30 0-16.569-13.431-30-30-30H268z m0-212.5c-16.569 0-30 13.431-30 30 0 16.569 13.431 30 30 30h180c16.569 0 30-13.431 30-30 0-16.569-13.431-30-30-30H268z m502.918-83.807c-11.215 12.195-10.42 31.173 1.775 42.389 12.195 11.215 31.173 10.42 42.389-1.775l103-112c11.215-12.195 10.42-31.173-1.775-42.389-12.195-11.215-31.173-10.42-42.389 1.775l-103 112zM709 25c-87.813 0-159 71.187-159 159s71.187 159 159 159 159-71.187 159-159-71.187-159-159-159z m0 60c54.676 0 99 44.324 99 99s-44.324 99-99 99-99-44.324-99-99 44.324-99 99-99zM687.31 770H188c-16.569 0-30-13.431-30-30v-716c0-16.569 13.431-30 30-30h387c16.569 0 30-13.431 30-30 0-16.569-13.431-30-30-30H188c-49.706 0-90 40.294-90 90V740c0 49.706 40.294 90 90 90h512.175a30 30 0 0 0 21.733-9.32l195.825-205.796a30 30 0 0 0 8.267-20.68v-235.48c0-16.568-13.431-30-30-30-16.569 0-30 13.432-30 30V582.213L687.31 770z"  horiz-adv-x="1024" />

    
    <glyph glyph-name="guanbi2" unicode="&#59379;" d="M512-64C264.576-64 64 136.576 64 384S264.576 832 512 832s448-200.576 448-448-200.576-448-448-448z m0 60c214.286 0 388 173.714 388 388S726.286 772 512 772 124 598.286 124 384s173.714-388 388-388zM671.777 585.99c11.7 11.732 30.695 11.758 42.426 0.058 11.732-11.7 11.758-30.694 0.059-42.426l-362.04-363.03c-11.699-11.732-30.694-11.758-42.425-0.059-11.732 11.7-11.758 30.695-0.059 42.427l362.04 363.03zM352.223 585.99c-11.7 11.732-30.695 11.758-42.426 0.058-11.732-11.7-11.758-30.694-0.059-42.426l362.04-363.03c11.699-11.732 30.694-11.758 42.425-0.059 11.732 11.7 11.758 30.695 0.059 42.427l-362.04 363.03z"  horiz-adv-x="1024" />

    
    <glyph glyph-name="bianji" unicode="&#59380;" d="M866 445.918c0 16.569 13.431 30 30 30 16.569 0 30-13.431 30-30V59c0-49.706-40.294-90-90-90H188c-49.706 0-90 40.294-90 90V678c0 49.706 40.294 90 90 90h422.5c16.569 0 30-13.431 30-30 0-16.569-13.431-30-30-30H188c-16.569 0-30-13.431-30-30v-619c0-16.569 13.431-30 30-30h648c16.569 0 30 13.431 30 30V445.918zM507.567 336.311c-11.716-11.715-30.71-11.715-42.427 0-11.715 11.716-11.715 30.711 0 42.427L875.262 788.86c11.716 11.715 30.711 11.715 42.427 0 11.715-11.716 11.715-30.711 0-42.427L507.567 336.311z"  horiz-adv-x="1024" />

    
    <glyph glyph-name="jifenshangcheng" unicode="&#59381;" d="M486.4 392.533H264.533v-324.266h494.934V392.533H537.6v-247.466a25.6 25.6 0 1 0-51.2 0V392.533zM536.132 563.2a25.566 25.566 0 0 0 1.468-8.533v-110.934H768a59.733 59.733 0 0 1 0 119.467H536.132z m-48.264 0H256a59.733 59.733 0 0 1 0-119.467h230.4V554.667c0 3.003 0.512 5.87 1.468 8.533zM213.333 401.067A110.967 110.967 0 0 0 256 614.4h200.021l-106.94 106.974a25.6 25.6 0 0 0 36.182 36.181L512 630.886l126.703 126.737a25.6 25.6 0 0 0 36.215-36.215L567.945 614.4H768a110.933 110.933 0 0 0 42.667-213.333v-358.4a25.6 25.6 0 0 0-25.6-25.6H238.933a25.6 25.6 0 0 0-25.6 25.6v358.4z"  horiz-adv-x="1024" />

    
    <glyph glyph-name="fenxiang" unicode="&#59382;" d="M751.14 746.433c-11.715 11.716-11.715 30.71 0 42.427 11.716 11.715 30.711 11.715 42.427 0l120.208-120.21c11.716-11.715 11.716-30.71 0-42.426-11.716-11.716-30.71-11.716-42.426 0L751.14 746.433zM834.414 482.526c-8.284-14.35-26.632-19.265-40.981-10.981s-19.265 26.632-10.98 40.98l85 147.225c8.284 14.349 26.631 19.265 40.98 10.98 14.349-8.284 19.265-26.631 10.98-40.98l-85-147.224zM464 175c0-16.569-13.431-30-30-30-16.569 0-30 13.431-30 30V301.66C404 507.682 567.133 675 768.754 675H894c16.569 0 30-13.431 30-30 0-16.569-13.431-30-30-30H768.754C600.615 615 464 474.88 464 301.66V175zM866 387.819c0 16.568 13.431 30 30 30 16.569 0 30-13.432 30-30V60c0-49.706-40.294-90-90-90H188c-49.706 0-90 40.294-90 90V708c0 49.706 40.294 90 90 90h323.203c16.568 0 30-13.431 30-30 0-16.569-13.432-30-30-30H188c-16.569 0-30-13.431-30-30v-648c0-16.569 13.431-30 30-30h648c16.569 0 30 13.431 30 30V387.819z"  horiz-adv-x="1024" />

    
    <glyph glyph-name="gerenzhongxin" unicode="&#59383;" d="M509.3 384.7c-117.1 0-212.4 95.3-212.4 212.4S392.2 809.5 509.3 809.5c117.1 0 212.4-95.3 212.4-212.4s-95.3-212.4-212.4-212.4z m0 374.8c-89.5 0-162.4-72.9-162.4-162.4s72.9-162.4 162.4-162.4 162.4 72.9 162.4 162.4-72.9 162.4-162.4 162.4zM812.5-7.5H219.1c-29.3 0-56.7 13.1-75.1 35.9-18.4 22.8-25.4 52.4-19.1 81.1 19.6 90.5 68.9 172.6 138.7 231.4 34.9 29.4 74 52.3 116.1 68.1 43.6 16.4 89.4 24.6 136.2 24.6s92.6-8.3 136.2-24.6c42.1-15.8 81.1-38.7 116-68.1 69.8-58.7 119-140.9 138.7-231.4 6.2-28.7-0.7-58.3-19.1-81.1-18.5-22.8-45.9-35.9-75.2-35.9zM515.8 383.6c-40.8 0-80.7-7.2-118.6-21.5-36.8-13.8-70.9-33.8-101.4-59.5-61.4-51.7-104.7-124-122-203.7-3-13.9 0.3-28.1 9.2-39.1 8.9-11 22-17.3 36.2-17.3h593.4c14.1 0 27.3 6.3 36.2 17.3 8.9 11 12.2 25.3 9.2 39.1-17.3 79.7-60.7 152.1-122 203.7-30.5 25.7-64.7 45.7-101.4 59.5-38.1 14.3-78.1 21.5-118.8 21.5z"  horiz-adv-x="1024" />

    
    <glyph glyph-name="fanhui" unicode="&#59384;" d="M769.742 774.3c12.506 10.868 13.833 29.817 2.964 42.322-10.868 12.506-29.817 13.833-42.322 2.965L253.515 405.143c-12.505-10.869-13.832-29.817-2.964-42.323 10.869-12.505 29.817-13.833 42.323-2.964L769.742 774.3zM728.596-54.56c12.49-10.886 31.441-9.586 42.327 2.904 10.887 12.49 9.586 31.441-2.904 42.327L292.511 405.115c-12.49 10.886-31.44 9.586-42.327-2.904-10.886-12.49-9.585-31.44 2.905-42.327L728.596-54.56z"  horiz-adv-x="1024" />

    
    <glyph glyph-name="gouwuche" unicode="&#59385;" d="M825.1 168.4H338.6c-28 0-55 9.9-76.1 28-21.8 18.6-34.8 43.7-36.7 70.6v0.1l-26.1 405.1-49.3 24.1c-12.4 6.1-17.6 21-11.5 33.4 6.1 12.4 21 17.6 33.4 11.5l52.7-25.7c14.7-7.1 24-21.1 24.4-36.9l26.3-408.2c2-28.7 30.3-52 63-52h486.5c13.8 0 25-11.2 25-25s-11.3-25-25.1-25z m-621.8 502zM385.4 281.3h-1.1c-13.8 0-25 11.2-25 25s11.2 25 25 25h0.4l345.9 25.3c18.9 1.6 33.8 14.4 35.3 30.4 0.1 0.9 0.2 1.9 0.4 2.8l31.4 166.4c0.1 1.6 0.3 3.2 0.7 4.7 1.8 7.9-1 16.9-7.2 23.6-7.4 7.9-18.2 12.4-29.5 12.4H356.5c-13.8 0-25 11.2-25 25s11.2 25 25 25h405.2c25 0 49.1-10.3 65.9-28.1 17.3-18.4 24.7-43.4 19.9-67.2-0.1-1.1-0.2-2.2-0.4-3.3l-31.5-166.8c-4.3-39.7-38.2-71-81-74.6h-0.3l-346.7-25.3c-0.7-0.3-1.5-0.3-2.2-0.3z m430.3 100.9z m31.5 167.6z m-49.6 4.1z m-469.3-472c0.7 0 1.3-0.6 1.3-1.3 0-0.7-0.6-1.3-1.3-1.3-0.7 0-1.3 0.6-1.3 1.3 0 0.8 0.6 1.3 1.3 1.3m0 50c-28.3 0-51.3-23-51.3-51.3 0-28.3 23-51.3 51.3-51.3s51.3 23 51.3 51.3c0 28.4-23 51.3-51.3 51.3z m410.3-50c0.7 0 1.3-0.6 1.3-1.3 0-0.7-0.6-1.3-1.3-1.3-0.7 0-1.3 0.6-1.3 1.3 0 0.8 0.6 1.3 1.3 1.3m0 50c-28.3 0-51.3-23-51.3-51.3 0-28.3 23-51.3 51.3-51.3 28.3 0 51.3 23 51.3 51.3 0 28.4-22.9 51.3-51.3 51.3z"  horiz-adv-x="1024" />

    
    <glyph glyph-name="quanbudingdan" unicode="&#59386;" d="M538.624 238.592H364.032c-11.264 0-19.968 8.704-19.968 19.968s8.704 19.968 19.968 19.968h174.592c11.264 0 19.968-8.704 19.968-19.968 0-10.752-9.216-19.968-19.968-19.968z m81.408 131.072h-256c-11.264 0-19.968 8.704-19.968 19.968s8.704 19.968 19.968 19.968h256c11.264 0 19.968-8.704 19.968-19.968s-8.704-19.968-19.968-19.968z m-433.664-231.936c-13.824 0-25.088-24.576-25.088-10.752V616.96c0 59.392 49.152 107.52 110.08 107.52h69.632c13.824 0 25.088-11.264 25.088-25.088s-11.264-25.088-25.088-25.088H271.36c-33.28 0-59.904-25.6-59.904-57.344v-495.104c0-13.824-11.264-48.64-25.088-48.64v64.512z m566.272-148.48H271.36c-60.416 0-110.08 48.128-110.08 107.52v29.184c0 13.824 11.264 25.088 25.088 25.088s25.088-11.264 25.088-25.088v-29.184c0-31.744 27.136-57.344 59.904-57.344h481.28c33.28 0 59.904 25.6 59.904 57.344V616.96c0 31.744-27.136 57.344-59.904 57.344h-70.656c-13.824 0-25.088 11.264-25.088 25.088s11.264 25.088 25.088 25.088H752.64c60.416 0 110.08-48.128 110.08-107.52v-520.192c0-59.392-49.152-107.52-110.08-107.52zM620.544 580.608H402.944c-48.128 0-86.528 38.912-87.04 87.04v36.864c0 48.128 38.912 86.528 87.04 87.04h217.6c48.128 0 87.04-38.912 87.04-87.04v-36.864c-0.512-48.128-39.424-87.04-87.04-87.04zM402.944 740.864c-20.48 0-36.864-16.384-36.864-36.864v-36.864c0-20.48 16.384-36.864 36.864-36.864h217.6c20.48 0 36.864 16.384 36.864 36.864v36.864c0 20.48-16.384 36.864-36.864 36.864H402.944z"  horiz-adv-x="1024" />

    
    <glyph glyph-name="shouye" unicode="&#59387;" d="M88.064 442.88c-17.92 0-32.256 14.336-32.256 31.744 0 10.24 5.12 19.968 13.312 26.112l423.936 304.128c14.336 10.24 34.304 7.68 44.544-6.656s7.68-34.304-6.656-44.544l-0.512-0.512-423.936-304.128c-5.12-4.096-11.776-6.144-18.432-6.144zM935.936 442.88c-6.656 0-13.312 2.048-18.432 6.144L493.568 753.152c-14.336 10.24-17.408 30.72-6.656 44.544 10.24 13.824 29.696 17.408 44.032 7.168l423.936-304.128c14.336-10.24 17.408-30.208 7.168-44.544-6.144-8.192-15.872-13.312-26.112-13.312zM207.872-43.008c-17.92 0-31.744 14.336-31.744 31.744V555.008c0 17.92 14.336 31.744 31.744 31.744s31.744-14.336 31.744-31.744v-565.76c0.512-17.92-13.824-32.256-31.744-32.256zM816.128-43.008c-17.92 0-31.744 14.336-31.744 31.744V555.008c0 17.92 14.336 31.744 31.744 31.744s31.744-14.336 31.744-31.744v-565.76c0-17.92-14.336-32.256-31.744-32.256z m-421.376 0H207.872c-17.92 0-31.744 14.336-31.744 31.744s14.336 31.744 31.744 31.744h186.88c17.92 0 31.744-14.336 31.744-31.744s-13.824-31.744-31.744-31.744zM816.128-43.008h-186.88c-17.92 0-31.744 14.336-31.744 31.744s14.336 31.744 31.744 31.744h186.88c17.92 0 31.744-14.336 31.744-31.744s-14.336-31.744-31.744-31.744z m-421.376 0c-17.92 0-31.744 14.336-31.744 31.744v307.2c0 17.92 14.336 31.744 31.744 31.744s31.744-14.336 31.744-31.744v-307.2c0.512-17.408-13.824-31.744-31.744-31.744zM629.248-43.008c-17.92 0-31.744 14.336-31.744 31.744v307.2c0 17.92 14.336 31.744 31.744 31.744s31.744-14.336 31.744-31.744v-307.2c0-17.408-14.336-31.744-31.744-31.744zM629.248 264.192H394.752c-17.92 0-31.744 14.336-31.744 31.744s14.336 31.744 31.744 31.744h233.984c17.92 0 31.744-14.336 31.744-31.744s-13.824-31.744-31.232-31.744z"  horiz-adv-x="1024" />

    
    <glyph glyph-name="xiaoxi1" unicode="&#59388;" d="M247.296 42.496c0 22.528 4.096 78.336 11.776 168.96-72.192 58.368-114.176 139.264-114.176 226.816 0 173.568 165.376 312.832 367.104 312.832s367.104-138.752 367.104-312.832-165.376-312.832-367.104-312.832c-23.04 0-101.888-35.84-226.304-105.472-12.288-6.656-28.16-2.56-34.816 9.728-2.048 4.096-3.584 8.704-3.584 12.8z m64 178.176c-5.12-57.856-8.704-102.4-10.752-133.632 111.104 60.416 179.2 89.6 211.456 89.6 175.104 0 315.904 118.272 315.904 261.632S687.616 699.904 512 699.904 196.096 581.632 196.096 438.272c0-74.752 38.4-144.896 104.96-194.56 7.168-5.12 11.264-13.824 10.24-23.04z m242.688 225.28c0-26.112-20.992-47.104-47.104-47.104s-47.104 20.992-47.104 47.104 20.992 47.104 47.104 47.104 47.104-20.992 47.104-47.104z m161.28 0c0-26.112-20.992-47.104-47.104-47.104s-47.104 20.992-47.104 47.104 20.992 47.104 47.104 47.104 47.104-20.992 47.104-47.104z m-322.56 0c0-26.112-20.992-47.104-47.104-47.104s-47.104 20.992-47.104 47.104 20.992 47.104 47.104 47.104 47.104-20.992 47.104-47.104z"  horiz-adv-x="1024" />

    
    <glyph glyph-name="jifenchoujiang" unicode="&#59389;" d="M900.9 547.5c-21.3 50.3-51.7 95.4-90.5 134.2-38.8 38.8-83.9 69.2-134.2 90.5-52.1 22-107.3 33.2-164.3 33.2-57 0-112.3-11.2-164.3-33.2-50.3-21.3-95.4-51.7-134.2-90.5-38.8-38.8-69.2-83.9-90.5-134.2-22-52.1-33.2-107.3-33.2-164.3S101 270.9 123 218.9c21.3-50.3 51.7-95.4 90.5-134.2 38.8-38.8 83.9-69.2 134.2-90.5C399.8-27.8 455-39 512-39c57 0 112.3 11.2 164.3 33.2 50.3 21.3 95.4 51.7 134.2 90.5 38.8 38.8 69.2 83.9 90.5 134.2 22 52.1 33.2 107.3 33.2 164.3s-11.3 112.2-33.3 164.3z m-369-535.9V168.5c0 11-9 20-20 20s-20-9-20-20v-156.9c-87.6 4.7-167.2 39.7-228.5 94.8l110.8 110.8c7.8 7.8 7.8 20.5 0 28.3-7.8 7.8-20.5 7.8-28.3 0L235.2 134.7C180.1 196 145 275.6 140.3 363.2h156.9c11 0 20 9 20 20s-9 20-20 20H140.3c4.7 87.6 39.7 167.2 94.8 228.5L346 520.9c3.9-3.9 9-5.9 14.1-5.9s10.2 2 14.1 5.9c7.8 7.8 7.8 20.5 0 28.3L263.4 660c61.3 55.1 140.9 90.2 228.5 94.8v-156.9c0-11 9-20 20-20s20 9 20 20V754.8c87.6-4.7 167.2-39.7 228.5-94.8L649.6 549.1c-7.8-7.8-7.8-20.5 0-28.3 3.9-3.9 9-5.9 14.1-5.9s10.2 2 14.1 5.9l110.8 110.8c55.1-61.3 90.2-140.9 94.8-228.5H726.6c-11 0-20-9-20-20s9-20 20-20h156.9c-4.7-87.6-39.7-167.2-94.8-228.5L677.9 245.5c-7.8 7.8-20.5 7.8-28.3 0s-7.8-20.5 0-28.3l110.8-110.8c-61.3-55.1-140.9-90.1-228.5-94.8zM578.2 435.6l-65.9 105.5-65.9-105.5c-17.1-17-27.7-40.5-27.7-66.4 0-51.6 42-93.6 93.6-93.6s93.6 42 93.6 93.6c0 25.9-10.6 49.4-27.7 66.4z m-65.9-120c-29.5 0-53.6 24-53.6 53.6 0 29.5 24 53.6 53.6 53.6 29.5 0 53.6-24 53.6-53.6 0-29.5-24-53.6-53.6-53.6z"  horiz-adv-x="1024" />

    
    <glyph glyph-name="shouhuodizhi" unicode="&#59390;" d="M512 342.4c-69.4 0-125.8 56.4-125.8 125.8S442.6 594 512 594s125.8-56.4 125.8-125.8S581.4 342.4 512 342.4z m0 211.6c-47.3 0-85.8-38.5-85.8-85.8s38.5-85.8 85.8-85.8 85.8 38.5 85.8 85.8S559.3 554 512 554zM512 129.7c-5.8 0-11.7 2-16.4 6.1L339.5 270.9c-37.1 26.7-67.9 62.1-89.2 102.5-22.2 42.1-33.9 89.7-33.9 137.6 0 78.9 30.7 153.2 86.6 209 55.8 55.8 130.1 86.6 209 86.6s153.2-30.7 209-86.6c55.8-55.8 86.6-130.1 86.6-209 0-47.9-11.7-95.4-33.9-137.5-21.3-40.4-52.1-75.8-89.2-102.5L528.4 135.8c-4.7-4.1-10.6-6.1-16.4-6.1z m0 626.9c-65.6 0-127.3-25.6-173.7-72-46.4-46.4-71.9-108.1-71.9-173.6 0-39.8 9.7-79.3 28.2-114.3 17.8-33.9 43.8-63.5 75-85.8 0.6-0.5 1.3-0.9 1.8-1.5L512 187.8l140.6 121.7c0.6 0.5 1.2 1 1.8 1.4 31.2 22.3 57.2 52 75 85.8 18.4 34.9 28.1 74.4 28.1 114.2 0 65.6-25.6 127.3-72 173.7-46.2 46.5-107.9 72-173.5 72zM512-42.7c-87.7 0-170.5 13.6-233.2 38.3-32 12.6-57.5 27.6-75.8 44.6-15 14-32.9 36.9-32.9 66.9 0 47 42.8 88.2 120.4 115.9 13 4.7 27.3-2.1 32-15.1 4.7-13-2.1-27.3-15.1-32-53.8-19.3-87.2-45.6-87.2-68.9 0-21.4 29.5-46.3 76.9-65 57-22.5 133.3-34.8 214.9-34.8s157.9 12.4 214.9 34.8c47.5 18.7 76.9 43.6 76.9 65 0 23.2-33.4 49.5-87.1 68.8-13 4.7-19.8 19-15.1 32 4.7 13 19 19.8 32 15.1 77.6-27.8 120.3-68.9 120.3-115.8 0-16.5-5.7-41.6-32.9-66.9-18.3-17-43.7-32-75.8-44.6-62.7-24.7-145.5-38.3-233.2-38.3z"  horiz-adv-x="1024" />

    
    <glyph glyph-name="daipingjia" unicode="&#59391;" d="M322.901 446.976a14.61 14.61 0 1 1 0.069-29.218 14.61 14.61 0 0 1-0.035 29.218z m0-80.418a65.877 65.877 0 0 0-65.775 65.809 65.877 65.877 0 0 0 65.81 65.809 65.877 65.877 0 0 0 65.774-65.81 65.877 65.877 0 0 0-65.775-65.808z m190.976 80.418a14.61 14.61 0 1 1 0-29.218 14.61 14.61 0 0 1 0 29.218z m0-80.418a65.877 65.877 0 0 0-65.809 65.809 65.877 65.877 0 0 0 65.81 65.809 65.877 65.877 0 0 0 65.774-65.81 65.877 65.877 0 0 0-65.775-65.808z m190.942 80.418a14.61 14.61 0 1 1 0.034-29.218 14.61 14.61 0 0 1 0 29.218z m0-80.418a65.877 65.877 0 0 0-65.775 65.809 65.877 65.877 0 0 0 65.775 65.809 65.877 65.877 0 0 0 65.81-65.81 65.877 65.877 0 0 0-65.81-65.808zM221.867 708.267c-18.808 0-34.134-15.326-34.134-34.134v-463.428c0-18.807 15.326-34.133 34.134-34.133H408.78l93.935-120.662a2.833 2.833 0 0 1 2.696-1.57 2.833 2.833 0 0 1 2.697 1.57l2.014 2.97 91.92 117.692h189.202c18.841 0 34.167 15.326 34.167 34.133V674.133c0 18.808-15.326 34.134-34.133 34.134H221.867z m283.545-705.093a53.692 53.692 0 0 0-45.977 25.396l-75.64 96.802H221.867a85.436 85.436 0 0 0-85.334 85.333V674.133c0 47.036 38.298 85.334 85.334 85.334h569.378c47.104 0 85.367-38.298 85.367-85.334v-463.428c0-47.036-38.263-85.333-85.333-85.333H626.995L551.39 28.57a53.726 53.726 0 0 0-45.978-25.396z"  horiz-adv-x="1024" />

    
    <glyph glyph-name="jifen" unicode="&#59392;" d="M512 491c-106.556 0-206.754 15.506-281.837 42.978-38.158 13.961-69.255 30.803-91.613 50.144C112.66 606.517 98 632.732 98 661.5s14.661 54.983 40.55 77.378c22.358 19.341 53.455 36.183 91.613 50.144C305.246 816.494 405.444 832 512 832c106.556 0 206.754-15.506 281.837-42.978 38.158-13.961 69.255-30.803 91.613-50.144C911.34 716.483 926 690.268 926 661.5s-14.661-54.983-40.55-77.378c-22.358-19.341-53.455-36.183-91.613-50.144C718.754 506.506 618.556 491 512 491z m0 60c99.904 0 193.205 14.439 261.22 39.325 31.849 11.653 56.752 25.14 72.976 39.175 13.768 11.91 19.804 22.702 19.804 32 0 9.298-6.036 20.09-19.804 32-16.224 14.035-41.127 27.522-72.975 39.175C705.205 757.561 611.904 772 512 772s-193.205-14.439-261.22-39.325c-31.849-11.653-56.752-25.14-72.976-39.175-13.768-11.91-19.804-22.702-19.804-32 0-9.298 6.036-20.09 19.804-32 16.224-14.035 41.127-27.522 72.975-39.175C318.795 565.439 412.096 551 512 551z m354-271c0 16.569 13.431 30 30 30 16.569 0 30-13.431 30-30v-174c0-28.728-14.681-54.885-40.59-77.218-22.359-19.272-53.452-36.052-91.605-49.962C718.732-48.55 618.545-64 512-64c-106.545 0-206.732 15.45-281.805 42.82-38.153 13.91-69.246 30.69-91.605 49.962C112.68 51.115 98 77.272 98 106V280c0 16.569 13.431 30 30 30 16.569 0 30-13.431 30-30v-174c0-9.202 6.016-19.921 19.764-31.77 16.224-13.986 41.13-27.427 72.983-39.04C318.772 10.39 412.085-4 512-4c99.915 0 193.228 14.39 261.253 39.19 31.852 11.613 56.759 25.054 72.983 39.04C859.984 86.078 866 96.797 866 106V280zM866 465c0 16.569 13.431 30 30 30 16.569 0 30-13.431 30-30v-174c0-28.728-14.681-54.885-40.59-77.218-22.359-19.272-53.452-36.052-91.605-49.962C718.732 136.45 618.545 121 512 121c-106.545 0-206.732 15.45-281.805 42.82-38.153 13.91-69.246 30.69-91.605 49.962C112.68 236.115 98 262.272 98 291V465c0 16.569 13.431 30 30 30 16.569 0 30-13.431 30-30v-174c0-9.202 6.016-19.921 19.764-31.77 16.224-13.986 41.13-27.427 72.983-39.04C318.772 195.39 412.085 181 512 181c99.915 0 193.228 14.39 261.253 39.19 31.852 11.613 56.759 25.054 72.983 39.04C859.984 271.078 866 281.797 866 291V465zM866 650c0 16.569 13.431 30 30 30 16.569 0 30-13.431 30-30v-174c0-28.728-14.681-54.885-40.59-77.218-22.359-19.272-53.452-36.052-91.605-49.962C718.732 321.45 618.545 306 512 306c-106.545 0-206.732 15.45-281.805 42.82-38.153 13.91-69.246 30.69-91.605 49.962C112.68 421.115 98 447.272 98 476V650c0 16.569 13.431 30 30 30 16.569 0 30-13.431 30-30v-174c0-9.202 6.016-19.921 19.764-31.77 16.224-13.986 41.13-27.427 72.983-39.04C318.772 380.39 412.085 366 512 366c99.915 0 193.228 14.39 261.253 39.19 31.852 11.613 56.759 25.054 72.983 39.04C859.984 456.078 866 466.797 866 476V650z"  horiz-adv-x="1024" />

    
    <glyph glyph-name="mima" unicode="&#59393;" d="M188 496c-16.569 0-30-13.431-30-30v-440c0-16.569 13.431-30 30-30h648c16.569 0 30 13.431 30 30V466c0 16.569-13.431 30-30 30H188z m0 60h648c49.706 0 90-40.294 90-90v-440c0-49.706-40.294-90-90-90H188c-49.706 0-90 40.294-90 90V466c0 49.706 40.294 90 90 90zM799 545h-60c0 125.369-101.631 227-227 227S285 670.369 285 545h-60c0 158.506 128.494 287 287 287s287-128.494 287-287zM432 291a80 80 0 1 1 160 0 80 80 0 1 1-160 0zM482 319.5c0 16.569 13.431 30 30 30 16.569 0 30-13.431 30-30v-218.83c0-16.568-13.431-30-30-30-16.569 0-30 13.432-30 30V319.5z"  horiz-adv-x="1024" />

    
    <glyph glyph-name="jiantou" unicode="&#59394;" d="M357.376 43.69a25.6 25.6 0 0 1 36.181-36.18l358.4 358.4a25.6 25.6 0 0 1 0 36.18l-358.4 358.4a25.6 25.6 0 0 1-36.181-36.18L697.686 384l-340.31-340.31z"  horiz-adv-x="1024" />

    
    <glyph glyph-name="sousuo" unicode="&#59395;" d="M865.2 65.9L745.5 185.5c21.4 25.5 38.8 53.9 51.8 84.7 17.5 41.3 26.3 85.2 26.3 130.4s-8.9 89.1-26.3 130.4c-16.9 39.9-41 75.7-71.8 106.4-30.7 30.7-66.6 54.9-106.4 71.8-41.3 17.5-85.2 26.3-130.4 26.3s-89.1-8.9-130.4-26.3c-39.9-16.9-75.7-41-106.4-71.8-30.7-30.7-54.9-66.6-71.8-106.4-17.5-41.3-26.3-85.2-26.3-130.4s8.9-89.1 26.3-130.4c16.9-39.9 41-75.7 71.8-106.4 30.7-30.7 66.6-54.9 106.4-71.8 41.3-17.5 85.2-26.3 130.4-26.3s89.1 8.9 130.4 26.3c33.6 14.2 64.2 33.6 91.4 57.7l119.2-119.2c4.9-4.9 11.3-7.3 17.7-7.3s12.8 2.4 17.7 7.3c9.8 9.8 9.8 25.6 0.1 35.4z m-376.4 49.8c-157 0-284.8 127.8-284.8 284.9s127.8 284.9 284.9 284.9 284.9-127.8 284.9-284.9-127.9-284.9-285-284.9z"  horiz-adv-x="1024" />

    
    <glyph glyph-name="daishouhuo" unicode="&#59396;" d="M743.936 763.904c35.328 0 67.072-20.48 81.408-52.224l1.536-4.096L894.464 542.72v-448.512c0-48.128-37.888-87.552-85.504-89.6H224.768c-48.128 0-87.552 37.888-89.6 85.504v435.2c0 9.728 1.536 19.456 4.608 28.16l2.048 5.632 60.416 148.48c13.312 32.768 44.032 54.272 78.848 55.808h4.608c-0.512 0.512 458.24 0.512 458.24 0.512zM834.56 505.856H195.072v-411.648c0-15.36 11.776-28.16 27.136-29.696h582.656c15.36 0 28.16 11.776 29.696 27.136V505.856z m-90.624 198.144H285.184c-11.264 0-21.504-6.144-26.624-16.384l-1.024-2.56-48.128-119.296h611.328l-48.128 119.296c-3.584 9.216-12.288 16.384-22.016 18.432l-2.56 0.512h-4.096zM445.44 225.28l194.56 169.472c12.288 10.752 30.72 9.216 41.472-3.072 10.752-12.288 9.216-30.72-3.072-41.472l-194.56-169.472c-12.288-10.752-30.72-9.216-41.472 3.072-10.24 12.288-9.216 30.72 3.072 41.472z m-47.104 98.816l87.04-99.84c10.752-12.288 9.216-30.72-3.072-41.472-12.288-10.752-30.72-9.216-41.472 3.072l-87.04 99.84c-10.752 12.288-9.216 30.72 3.072 41.472 12.288 10.24 30.72 9.216 41.472-3.072z"  horiz-adv-x="1024" />

    
    <glyph glyph-name="tishi" unicode="&#59397;" d="M512-64C264.576-64 64 136.576 64 384S264.576 832 512 832s448-200.576 448-448-200.576-448-448-448z m0 60c214.286 0 388 173.714 388 388S726.286 772 512 772 124 598.286 124 384s173.714-388 388-388zM482.5 482c0 16.569 13.431 30 30 30 16.569 0 30-13.431 30-30v-350c0-16.569-13.431-30-30-30-16.569 0-30 13.431-30 30V482zM472 597a40 40 0 1 1 80 0 40 40 0 1 1-80 0z"  horiz-adv-x="1024" />

    
    <glyph glyph-name="guanbi" unicode="&#59398;" d="M503.467 428.715l319.829 319.829a25.6 25.6 0 1 0 36.181-36.181l-319.829-319.83 319.83-319.829a25.6 25.6 0 1 0-36.182-36.181l-319.83 319.829-319.829-319.83a25.6 25.6 0 1 0-36.181 36.182l319.83 319.83-319.83 319.829a25.6 25.6 0 1 0 36.181 36.181l319.83-319.83z"  horiz-adv-x="1024" />

    
    <glyph glyph-name="jiazai" unicode="&#59399;" d="M486.4 793.6a25.6 25.6 0 1 0 51.2 0v-170.667a25.6 25.6 0 1 0-51.2 0V793.6z m208.213-42.086a25.6 25.6 0 0 0 44.374-25.6l-85.334-147.798a25.6 25.6 0 0 0-44.373 25.6l85.333 147.798z m159.3-140.527a25.6 25.6 0 0 0 25.6-44.374L731.717 481.28a25.6 25.6 0 0 0-25.6 44.373l147.798 85.334zM921.6 409.6a25.6 25.6 0 1 0 0-51.2H750.933a25.6 25.6 0 1 0 0 51.2H921.6z m-42.086-208.213a25.6 25.6 0 1 0-25.6-44.374l-147.798 85.334a25.6 25.6 0 0 0 25.6 44.373l147.798-85.333z m-140.527-159.3a25.6 25.6 0 0 0-44.374-25.6L609.28 164.283a25.6 25.6 0 0 0 44.373 25.6l85.334-147.798zM537.6-25.6a25.6 25.6 0 1 0-51.2 0V145.067a25.6 25.6 0 1 0 51.2 0V-25.6z m-208.213 42.086a25.6 25.6 0 1 0-44.374 25.6l85.334 147.798a25.6 25.6 0 0 0 44.373-25.6l-85.333-147.798z m-159.3 140.527a25.6 25.6 0 0 0-25.6 44.374l147.797 85.333a25.6 25.6 0 0 0 25.6-44.373l-147.798-85.334zM102.4 358.4a25.6 25.6 0 1 0 0 51.2h170.667a25.6 25.6 0 1 0 0-51.2H102.4z m42.086 208.213a25.6 25.6 0 0 0 25.6 44.374l147.798-85.334a25.6 25.6 0 0 0-25.6-44.373l-147.798 85.333z m140.527 159.3a25.6 25.6 0 1 0 44.374 25.6l85.333-147.797a25.6 25.6 0 0 0-44.373-25.6l-85.334 147.798z"  horiz-adv-x="1024" />

    
    <glyph glyph-name="shanchu" unicode="&#59400;" d="M216.03 631.467h-45.363a25.6 25.6 0 0 0 0 51.2H384v42.666a25.6 25.6 0 0 0 25.6 25.6h204.8a25.6 25.6 0 0 0 25.6-25.6v-42.666h213.333a25.6 25.6 0 1 0 0-51.2H807.97L745.61 70.212a59.733 59.733 0 0 0-59.358-53.145H337.749a59.733 59.733 0 0 0-59.392 53.145l-62.293 561.255z m51.507 0l61.747-555.623a8.533 8.533 0 0 1 8.465-7.577h348.502a8.533 8.533 0 0 1 8.465 7.577l61.781 555.623H267.503z m167.663 51.2h153.6v17.066H435.2v-17.066z m51.2-128a25.6 25.6 0 1 0 51.2 0v-409.6a25.6 25.6 0 1 0-51.2 0v409.6z m136.636 2.116a25.6 25.6 0 1 0 50.995-4.233l-34.133-409.6a25.6 25.6 0 1 0-50.996 4.233l34.134 409.6z m-273.067-4.233a25.6 25.6 0 1 0 50.995 4.233l34.134-409.6a25.6 25.6 0 1 0-50.996-4.233l-34.133 409.6z"  horiz-adv-x="1024" />

    
    <glyph glyph-name="dianpu" unicode="&#59401;" d="M749.7 10.6H276.5c-26.9 0-48.7 21.9-48.7 48.7V340.2c0 13.8 11.2 25 25 25s25-11.2 25-25v-279.5h470.6V340.2c0 13.8 11.2 25 25 25s25-11.2 25-25v-280.8c0-26.9-21.9-48.7-48.7-48.8zM755.8 674.6c13.6 0 26.7-3.2 37.4-42.8l50.6-169.3c-1.6-51.2-43.8-92.4-95.4-92.4-37 0-69.9 20.7-86 54-9.6 19.9-22.5 24.1-31.6 24.1-9.1 0-22-4.2-31.6-24.1-16.1-33.3-49.1-53.9-86-53.9-34.5 0.1-66.3 18.7-83.3 48.7-10.9 19.5-24.5 23.5-34 23.5-9.6 0-23.5-4.3-35.3-24.6-17.1-29.4-48.6-47.6-82.7-47.7-51.7 0-93.9 41.2-95.4 92.5L231.2 633c6.5 27.6 19 41.6 37 41.6h487.6m0 50H268.2c-23.2 0-44.5-9.7-60.2-27.2-11.7-13.1-20-30-25.2-51.7l-48.5-169.4-2.1-7.5 0.2-7.8c1.2-37.9 16.8-73.3 44.1-99.8 27.3-26.6 63.3-41.2 101.3-41.2h0.2c25.4 0.1 50.5 6.8 72.5 19.5 17.7 10.2 33 24 45 40.4 27.2-37.2 70.8-59.8 117.5-59.9 27.5 0 54.3 7.7 77.4 22.1 15.7 9.9 29.4 22.7 40.3 37.6 10.9-15 24.5-27.8 40.2-37.6 23.1-14.5 49.9-22.1 77.4-22.1 38 0 74 14.6 101.3 41.1 27.2 26.4 42.9 61.8 44.1 99.7l0.3 8.1-2.3 7.8-50.4 168.7c-7.5 27.5-17.7 46.4-32 59.5-21.6 19.7-45.6 19.7-53.5 19.7z"  horiz-adv-x="1024" />

    
    <glyph glyph-name="dingdanguanli" unicode="&#59402;" d="M460.2 46.2h-232c-11.1 0-20.4 10.2-20.4 22.2v635c0 12 9.3 22.2 20.4 22.2h514.7c11.1 0 20.4-10.2 20.4-22.2v-312.1c0-16.6 13.4-30 30-30s30 13.4 30 30V703.4c0 45.3-36.1 82.2-80.4 82.2H228.1c-44.3 0-80.4-36.9-80.4-82.2v-634.9c0-45.3 36.1-82.2 80.4-82.2h232c16.6 0 30 13.4 30 30s-13.4 29.9-29.9 29.9zM856.1 112.7c-11.8 8.1-18.9 21.5-18.9 35.8 0 14.2 7 27.6 18.6 35.6l13.6 9.5-5.6 15.5c-7.5 21.1-18.8 40.5-33.6 57.5l-10.7 12.3-14.7-6.9c-5.8-2.7-12-4.1-18.3-4.1-22.6 0-41.2 16.9-43.3 39.4l-1.5 16.3-16 3c-21.9 4.1-44.7 4.1-66.5 0l-16-3-1.5-16.3c-2-22.5-20.7-39.4-43.3-39.4-6.3 0-12.6 1.4-18.3 4.1l-14.7 6.9-10.7-12.3c-14.7-17-25.9-36.4-33.6-57.5l-5.6-15.5 13.6-9.5c11.7-8.2 18.6-21.5 18.6-35.6 0-14.3-7.1-27.8-18.9-35.8l-13.6-9.3 5.4-15.6c7.3-21.1 18.4-40.5 32.9-57.6l10.8-12.7 15.1 7.3c5.9 2.9 12.3 4.3 18.9 4.3 22.8 0 41.9-17.8 43.4-40.5l1.1-16.7 16.5-3c10.9-2 22.1-3 33.2-3 11.1 0 22.3 1 33.2 3l16.5 3 1.1 16.7c1.5 22.7 20.6 40.5 43.4 40.5 6.7 0 13-1.5 18.9-4.3l15.1-7.3 10.8 12.7c14.5 17.1 25.6 36.5 32.9 57.6l5.4 15.6-13.7 9.3z m-48.7-43.1c-6.8 1.6-13.7 2.5-20.8 2.5-39.2 0-72.9-26.5-83.2-62.9-7.2-0.5-14.5-0.5-21.7 0-10.3 36.4-44 62.9-83.2 62.9-7.1 0-14-0.9-20.8-2.5-4.1 6-7.8 12.4-10.9 18.9 15.3 15.9 24.1 37.4 24.1 59.9 0 22.3-8.6 43.5-23.6 59.3 3.2 6.8 7 13.2 11.3 19.4 6.5-1.5 13.1-2.3 19.8-2.3 21.7 0 42.5 8.1 58.5 22.7 11.5 10.5 19.8 23.8 24.2 38.4 7.5 0.6 15.1 0.6 22.6 0 4.5-14.6 12.8-27.9 24.2-38.4 16-14.6 36.7-22.7 58.5-22.7 6.8 0 13.4 0.8 19.8 2.3 4.3-6.1 8.1-12.6 11.3-19.4-15-15.9-23.6-37.1-23.6-59.3 0-22.6 8.8-43.9 24.1-59.9-2.9-6.5-6.6-12.8-10.6-18.9zM692.5 224.3c-42.2 0-76.6-34.3-76.6-76.6 0-42.2 34.3-76.6 76.6-76.6s76.6 34.3 76.6 76.6-34.4 76.6-76.6 76.6z m0-110.1c-18.5 0-33.6 15.1-33.6 33.6s15.1 33.6 33.6 33.6 33.6-15.1 33.6-33.6-15.1-33.6-33.6-33.6zM651.8 600H319.1c-16.6 0-30-13.4-30-30s13.4-30 30-30h332.7c16.6 0 30 13.4 30 30s-13.4 30-30 30z m30-186.1c0 16.6-13.4 30-30 30H319.1c-16.6 0-30-13.4-30-30s13.4-30 30-30h332.7c16.6 0 30 13.4 30 30zM319.6 287.8c-16.6 0-30-13.4-30-30s13.4-30 30-30h139.8c16.6 0 30 13.4 30 30s-13.4 30-30 30H319.6z"  horiz-adv-x="1024" />

    
    <glyph glyph-name="shoucang" unicode="&#59403;" d="M602.112 697.344c37.888 20.48 80.896 29.184 123.904 25.088 144.896-13.824 220.16-141.312 188.416-282.624-31.232-138.24-235.008-349.696-395.776-404.992l-8.704-3.072-8.704 3.072C341.504 92.16 139.264 305.152 109.056 443.392c-30.72 141.312 45.568 268.288 190.464 281.088 43.008 3.584 86.016-5.12 123.392-26.112 89.088-48.128 90.624-48.128 179.2-1.024z m262.144-245.76c25.6 112.64-31.232 209.408-142.848 220.16-32.768 3.072-66.048-3.584-94.72-19.456-104.448-55.296-124.416-55.296-227.84 0.512-28.672 15.872-61.952 23.04-94.72 19.968-111.616-9.728-168.96-105.472-144.896-218.624 25.6-117.76 207.872-311.808 350.72-367.616 143.872 54.784 327.68 247.296 354.304 365.056z"  horiz-adv-x="1024" />

    
    <glyph glyph-name="daifahuo" unicode="&#59404;" d="M804.352 461.312H224.256c-49.664 0-90.112 40.448-90.112 90.112V671.232c0 49.664 40.448 90.112 90.112 90.112h580.096c49.664 0 90.112-40.448 90.112-90.112v-119.808c-0.512-49.664-40.96-90.112-90.112-90.112zM224.256 700.928c-16.384 0-30.208-13.312-30.208-30.208v-119.808c0-16.384 13.312-30.208 30.208-30.208h580.096c16.384 0 30.208 13.312 30.208 30.208V671.232c0 16.384-13.312 30.208-30.208 30.208H224.256zM824.32 378.88c-16.384 0-30.208 13.312-30.208 30.208V483.84c0 16.384 13.312 30.208 30.208 30.208s30.208-13.312 30.208-30.208v-74.752c-0.512-16.896-13.824-30.208-30.208-30.208z m-60.416-372.736H264.192c-49.664 0-90.112 40.448-90.112 90.112v389.12c0 16.384 13.312 30.208 30.208 30.208s30.208-13.312 30.208-30.208v-388.608c0-16.384 13.312-30.208 30.208-30.208h500.224c16.384 0 30.208 13.312 30.208 30.208v49.152c0 16.384 13.312 30.208 30.208 30.208s30.208-13.312 30.208-30.208v-49.152c-1.536-50.176-41.984-90.624-91.648-90.624zM790.528 251.904h-216.064c-13.824 0-25.088 11.264-25.088 25.088s11.264 25.088 25.088 25.088h216.064c13.824 0 25.088-11.264 25.088-25.088s-11.264-25.088-25.088-25.088zM832 262.656c-5.632 0-10.752 2.048-15.36 5.632l-102.4 82.432c-10.752 8.704-12.288 24.576-3.584 35.328 8.704 10.752 24.576 12.288 35.328 3.584l102.4-82.432c10.752-8.704 12.288-24.576 3.584-35.328-5.632-6.144-12.8-9.216-19.968-9.216zM745.984 151.04c-5.632 0-10.752 1.536-15.36 5.12-10.752 8.704-12.8 24.064-4.096 35.328l80.384 102.4c8.704 10.752 24.064 12.8 35.328 4.096s12.8-24.064 4.096-35.328l-80.384-102.4c-5.12-6.144-12.288-9.216-19.968-9.216z"  horiz-adv-x="1024" />

    
    <glyph glyph-name="shuaxin" unicode="&#59405;" d="M801.621 512a25.668 25.668 0 0 0-3.345 5.325A315.733 315.733 0 1 1 827.733 384a25.6 25.6 0 1 0 51.2 0c0-202.65-164.283-366.933-366.933-366.933S145.067 181.35 145.067 384 309.35 750.933 512 750.933c131.618 0 250.539-69.939 315.733-179.848v85.982a25.6 25.6 0 1 0 51.2 0V486.4a25.6 25.6 0 0 0-25.6-25.6H682.667a25.6 25.6 0 1 0 0 51.2H801.62z"  horiz-adv-x="1024" />

    
    <glyph glyph-name="youhuiquan" unicode="&#59406;" d="M620.851 59.733h143.53a20.719 20.719 0 0 1 20.686 20.685V687.582a20.719 20.719 0 0 1-20.685 20.685H620.646A128.341 128.341 0 0 0 507.46 640c-47.786 0-91.272 26.795-113.22 68.267H259.584a20.685 20.685 0 0 1-20.65-20.685v-607.164c0-11.435 9.25-20.685 20.684-20.685h134.417a128.341 128.341 0 0 0 113.391 68.608 128.341 128.341 0 0 0 113.425-68.608z m143.53-51.2h-178.38l-6.042 17.101a77.039 77.039 0 0 1-72.499 51.507c-32.597 0-61.747-20.719-72.567-51.507l-6.008-17.1H259.584a71.953 71.953 0 0 0-71.85 71.884V687.582c0 39.629 32.221 71.885 71.884 71.885h169.336l6.075-17.033A77.073 77.073 0 0 1 507.46 691.2c32.427 0 61.509 20.617 72.431 51.234l6.042 17.033h178.449c39.629 0 71.885-32.256 71.885-71.885v-607.164a71.987 71.987 0 0 0-71.885-71.885z m-397.448 358.4h-51.2a25.6 25.6 0 1 0 0 51.2h51.2a25.6 25.6 0 1 0 0-51.2z m193.4 0h-96.7a25.6 25.6 0 1 0 0 51.2h96.7a25.6 25.6 0 1 0 0-51.2z m147.934 0h-51.2a25.6 25.6 0 1 0 0 51.2h51.2a25.6 25.6 0 1 0 0-51.2z"  horiz-adv-x="1024" />

    


  </font>
</defs>
</svg>
